<?xml version="1.0" standalone="no"?>
<!DOCTYPE svg PUBLIC "-//W3C//DTD SVG 20010904//EN"
 "http://www.w3.org/TR/2001/REC-SVG-20010904/DTD/svg10.dtd">
<svg version="1.0" xmlns="http://www.w3.org/2000/svg"
 width="204.000000pt" height="212.000000pt" viewBox="0 0 204.000000 212.000000"
 preserveAspectRatio="xMidYMid meet">

<g transform="translate(0.000000,212.000000) scale(0.100000,-0.100000)"
fill="#000000" stroke="none">
<path d="M515 1704 c-247 -222 -463 -422 -480 -446 l-30 -43 -3 -212 c-4 -241
0 -256 79 -327 58 -53 101 -69 279 -106 166 -35 203 -48 220 -81 27 -49 8
-118 -37 -138 -34 -16 -119 -14 -152 3 -31 16 -61 56 -61 81 0 13 -23 15 -165
15 l-165 0 0 -108 c0 -102 2 -111 29 -153 49 -76 110 -121 211 -155 76 -26
305 -26 400 0 90 25 174 72 219 122 131 149 130 494 -1 626 -51 51 -102 70
-307 119 -220 52 -246 65 -246 129 l0 44 140 124 c242 216 408 365 468 422
l58 55 -3 216 -3 216 -450 -403z"/>
<path d="M1060 1083 l0 -1033 160 0 160 0 0 285 0 285 190 0 190 0 0 -285 0
-285 140 0 140 0 0 478 -1 477 -139 158 -140 158 0 -176 0 -175 -190 0 -190 0
0 391 0 391 -137 155 c-76 86 -148 167 -160 182 l-22 26 -1 -1032z m140 177
l0 -60 -60 0 -60 0 0 60 0 60 60 0 60 0 0 -60z m160 0 l0 -60 -60 0 -60 0 0
60 0 60 60 0 60 0 0 -60z m-160 -160 l0 -60 -60 0 -60 0 0 60 0 60 60 0 60 0
0 -60z m160 0 l0 -60 -60 0 -60 0 0 60 0 60 60 0 60 0 0 -60z m-160 -150 l0
-60 -60 0 -60 0 0 60 0 60 60 0 60 0 0 -60z m160 0 l0 -60 -60 0 -60 0 0 60 0
60 60 0 60 0 0 -60z m-160 -160 l0 -60 -60 0 -60 0 0 60 0 60 60 0 60 0 0 -60z
m160 0 l0 -60 -60 0 -60 0 0 60 0 60 60 0 60 0 0 -60z"/>
</g>
</svg>
